<?xml version="1.0" encoding="UTF-8"?>
<svg id="Capa_2" data-name="Capa 2" xmlns="http://www.w3.org/2000/svg" viewBox="0 0 876.41 116.56">
  <defs>
    <style>
      .cls-1 {
        fill: #22222b;
        stroke-width: 0px;
      }
    </style>
  </defs>
  <g id="Capa_1-2" data-name="Capa 1">
    <g>
      <g>
        <path class="cls-1" d="M65.72,80.05L109.79,0h-51.17c-8.98,0-17.25,4.89-21.58,12.75L0,80.05h65.72Z"/>
        <path class="cls-1" d="M255.57,103.81l37.05-67.3h-65.72l-44.07,80.05h51.17c8.98,0,17.25-4.89,21.58-12.75Z"/>
        <polygon class="cls-1" points="146.05 116.56 102.49 0 146.31 0 189.87 116.56 146.05 116.56"/>
      </g>
      <g>
        <path class="cls-1" d="M350.86,29.24h11.41l-.35,15.65h.24c1.65-5.25,4.53-9.33,8.65-12.24,4.12-2.9,9.55-4.35,16.3-4.35,7.84,0,13.92,2.06,18.24,6.18,4.31,4.12,6.47,9.67,6.47,16.65v36.24h-11.29v-33.53c0-3.29-.61-6.1-1.82-8.41-1.22-2.31-3.14-4.08-5.76-5.29-2.63-1.22-5.9-1.82-9.82-1.82s-7.73.81-10.94,2.41c-3.22,1.61-5.67,3.98-7.35,7.12-1.69,3.14-2.53,6.9-2.53,11.3v28.24h-11.41V29.24Z"/>
        <path class="cls-1" d="M434.92,84.65c-4.59-2.43-8.1-5.9-10.53-10.41-2.43-4.51-3.65-9.75-3.65-15.71s1.24-11.35,3.71-15.94c2.47-4.59,6-8.12,10.59-10.59,4.59-2.47,10.02-3.71,16.3-3.71s11.61,1.24,16.24,3.71c4.63,2.47,8.14,6,10.53,10.59,2.39,4.59,3.59,9.9,3.59,15.94s-1.2,11.2-3.59,15.71c-2.39,4.51-5.9,7.98-10.53,10.41-4.63,2.43-10.04,3.65-16.24,3.65s-11.82-1.22-16.41-3.65ZM461.57,76.06c2.9-1.65,5.12-3.98,6.65-7,1.53-3.02,2.29-6.57,2.29-10.65s-.77-7.67-2.29-10.77c-1.53-3.1-3.75-5.47-6.65-7.12-2.9-1.65-6.31-2.47-10.24-2.47s-7.55.81-10.41,2.41c-2.86,1.61-5.02,3.96-6.47,7.06-1.45,3.1-2.18,6.73-2.18,10.88s.74,7.63,2.24,10.65c1.49,3.02,3.65,5.35,6.47,7,2.82,1.65,6.27,2.47,10.35,2.47s7.33-.82,10.24-2.47Z"/>
        <path class="cls-1" d="M491.34,29.24h11.41l-.35,15.65h.24c1.65-5.25,4.53-9.33,8.65-12.24,4.12-2.9,9.55-4.35,16.29-4.35,7.84,0,13.92,2.06,18.24,6.18,4.31,4.12,6.47,9.67,6.47,16.65v36.24h-11.29v-33.53c0-3.29-.61-6.1-1.82-8.41-1.22-2.31-3.14-4.08-5.76-5.29-2.63-1.22-5.9-1.82-9.82-1.82s-7.73.81-10.94,2.41c-3.22,1.61-5.67,3.98-7.35,7.12-1.69,3.14-2.53,6.9-2.53,11.3v28.24h-11.41V29.24Z"/>
        <path class="cls-1" d="M566.87,7.3h11.53v80.06h-11.53V7.3Z"/>
        <path class="cls-1" d="M592.63,9.35h12.12v12.59h-12.12v-12.59ZM592.87,29.24h11.53v58.12h-11.53V29.24Z"/>
        <path class="cls-1" d="M618.05,29.24h11.41l-.35,15.65h.24c1.65-5.25,4.53-9.33,8.65-12.24,4.12-2.9,9.55-4.35,16.29-4.35,7.84,0,13.92,2.06,18.24,6.18,4.31,4.12,6.47,9.67,6.47,16.65v36.24h-11.29v-33.53c0-3.29-.61-6.1-1.82-8.41-1.22-2.31-3.14-4.08-5.76-5.29-2.63-1.22-5.9-1.82-9.82-1.82s-7.73.81-10.94,2.41c-3.22,1.61-5.67,3.98-7.35,7.12-1.69,3.14-2.53,6.9-2.53,11.3v28.24h-11.41V29.24Z"/>
        <path class="cls-1" d="M701.64,84.65c-4.59-2.43-8.08-5.82-10.47-10.18-2.39-4.35-3.59-9.59-3.59-15.71s1.25-11.59,3.76-16.18c2.51-4.59,6-8.12,10.47-10.59,4.47-2.47,9.69-3.71,15.65-3.71s10.63,1.08,14.71,3.24c4.08,2.16,7.19,5.34,9.35,9.53,2.16,4.2,3.24,9.24,3.24,15.12v4.71h-53.06v-7.53h42.71v-.82c0-3.22-.67-5.94-2-8.18-1.33-2.24-3.22-3.94-5.65-5.12-2.43-1.18-5.49-1.76-9.18-1.76s-7.06.81-9.88,2.41c-2.82,1.61-4.96,3.98-6.41,7.12-1.45,3.14-2.18,7.06-2.18,11.77,0,4.24.74,7.86,2.24,10.88,1.49,3.02,3.63,5.35,6.41,7,2.78,1.65,6.1,2.47,9.94,2.47,3.22,0,6.02-.47,8.41-1.41,2.39-.94,4.31-2.25,5.76-3.94,1.45-1.69,2.29-3.71,2.53-6.06h10.35c-.08,4.08-1.28,7.69-3.59,10.82-2.31,3.14-5.49,5.55-9.53,7.24-4.04,1.69-8.73,2.53-14.06,2.53-6.04,0-11.35-1.22-15.94-3.65Z"/>
        <path class="cls-1" d="M756.7,62.65c1.53-2.43,3.88-4.29,7.06-5.59,3.18-1.29,7.27-1.94,12.29-1.94h23.41v-4.12c0-3.06-.61-5.61-1.82-7.65-1.22-2.04-3.08-3.57-5.59-4.59-2.51-1.02-5.69-1.53-9.53-1.53-5.18,0-9.08.92-11.71,2.77-2.63,1.84-3.94,4.57-3.94,8.18.08.71.12,1.45.12,2.24h-10.59c-.08-1.33-.16-2.55-.24-3.65,0-3.84,1.02-7.12,3.06-9.82,2.04-2.71,5.08-4.82,9.12-6.35,4.04-1.53,8.8-2.29,14.3-2.29,6.12,0,11.27.92,15.47,2.77,4.19,1.84,7.37,4.55,9.53,8.12,2.16,3.57,3.24,7.86,3.24,12.88v35.3h-11.41c.08-1.8.18-3.86.29-6.18.12-2.31.21-4.72.29-7.24h-.12c-.71,3.06-2.02,5.67-3.94,7.82-1.92,2.16-4.47,3.79-7.65,4.88-3.18,1.1-7.12,1.65-11.82,1.65s-8.47-.71-11.77-2.12c-3.29-1.41-5.84-3.43-7.65-6.06-1.81-2.63-2.71-5.78-2.71-9.47,0-2.9.76-5.57,2.29-8ZM789.82,77.42c3.06-1.29,5.43-3.14,7.12-5.53,1.69-2.39,2.53-5.2,2.53-8.41v-.94h-22.24c-2.82,0-5.14.29-6.94.88-1.81.59-3.16,1.47-4.06,2.65-.9,1.18-1.35,2.63-1.35,4.35,0,2.75,1.19,4.92,3.59,6.53,2.39,1.61,5.82,2.41,10.29,2.41s8-.65,11.06-1.94Z"/>
        <path class="cls-1" d="M823.59,29.24h11.41l-.47,16.94h.24c1.02-3.61,2.41-6.74,4.18-9.41,1.76-2.67,4.08-4.74,6.94-6.24,2.86-1.49,6.29-2.24,10.29-2.24,4.31,0,8.02.92,11.12,2.77,3.1,1.84,5.39,4.47,6.88,7.88,1.49,3.41,2.24,7.51,2.24,12.29,0,3.29-.16,6.86-.47,10.71h-10.59c.31-2.43.47-5.18.47-8.24,0-5.18-1.04-9.04-3.12-11.59-2.08-2.55-5.35-3.82-9.82-3.82-3.53,0-6.69.98-9.47,2.94-2.79,1.96-4.88,4.75-6.29,8.35-1.41,3.61-2.12,7.73-2.12,12.35v25.41h-11.41V29.24Z"/>
      </g>
    </g>
  </g>
</svg>